<svg xmlns="http://www.w3.org/2000/svg" viewBox="0 2.6100001335144043 262.82000732421875 39.279998779296875" data-asc="0.82373046875" width="262.82000732421875" height="39.279998779296875"><defs/><g fill="#53dc50"><g transform="translate(0, 0)"><path d="M30.91 30.44Q30.91 32.71 30.33 34.45Q29.76 36.18 28.72 37.45Q27.69 38.72 26.27 39.58Q24.85 40.43 23.18 40.94Q21.51 41.46 19.64 41.67Q17.77 41.89 15.84 41.89Q13.31 41.89 11.16 41.52Q9.01 41.14 7.12 40.32Q5.22 39.50 3.48 38.21Q1.73 36.91 0 35.06L4.98 30.00Q5.66 31.69 6.86 33.12Q8.06 34.55 9.48 35.57Q10.91 36.60 12.45 37.18Q13.99 37.77 15.36 37.77Q16.97 37.77 18.38 37.54Q19.80 37.30 20.85 36.77Q21.90 36.23 22.50 35.34Q23.10 34.45 23.10 33.11Q23.10 32.08 22.63 31.35Q22.17 30.62 21.42 30.09Q20.68 29.57 19.73 29.20Q18.77 28.83 17.79 28.58Q16.80 28.32 15.84 28.11Q14.89 27.91 14.16 27.69Q12.72 27.27 11.16 26.79Q9.59 26.32 8.08 25.71Q6.57 25.10 5.21 24.30Q3.86 23.51 2.83 22.42Q1.81 21.34 1.20 19.91Q0.59 18.48 0.59 16.63Q0.59 14.40 1.14 12.68Q1.68 10.96 2.69 9.69Q3.69 8.42 5.05 7.56Q6.42 6.69 8.06 6.16Q9.69 5.64 11.54 5.41Q13.38 5.18 15.31 5.18Q17.94 5.18 20.10 5.66Q22.27 6.15 24.10 7.06Q25.93 7.96 27.45 9.22Q28.98 10.47 30.32 12.01L25.34 17.07Q24.76 15.31 23.72 13.89Q22.68 12.48 21.41 11.46Q20.14 10.45 18.75 9.90Q17.36 9.35 16.06 9.35Q14.38 9.35 12.96 9.58Q11.55 9.81 10.53 10.34Q9.52 10.86 8.96 11.76Q8.40 12.65 8.40 13.96Q8.40 15.01 8.81 15.75Q9.23 16.48 9.92 16.99Q10.62 17.50 11.50 17.83Q12.38 18.16 13.32 18.41Q14.26 18.65 15.17 18.84Q16.09 19.02 16.85 19.24Q18.31 19.65 19.92 20.12Q21.53 20.58 23.10 21.20Q24.66 21.83 26.07 22.63Q27.49 23.44 28.56 24.55Q29.64 25.66 30.27 27.11Q30.91 28.56 30.91 30.44ZM34.72 29.13Q34.72 27.20 35.05 25.12Q35.38 23.05 36.00 20.97Q36.62 18.90 37.50 16.87Q38.38 14.84 39.48 12.99L45.51 12.99Q44.90 14.82 44.42 16.81Q43.95 18.80 43.62 20.79Q43.29 22.78 43.10 24.68Q42.92 26.59 42.92 28.22Q42.92 29.17 43.01 30.26Q43.09 31.35 43.31 32.43Q43.53 33.52 43.93 34.52Q44.34 35.52 44.97 36.29Q45.61 37.06 46.52 37.51Q47.44 37.96 48.68 37.96Q49.90 37.96 50.87 37.41Q51.83 36.87 52.56 35.97Q53.30 35.08 53.81 33.94Q54.32 32.79 54.65 31.58Q54.98 30.37 55.14 29.21Q55.30 28.05 55.30 27.12L55.30 12.99L63.55 12.99L63.55 41.19L60.38 41.19L56.59 34.62Q55.88 36.25 54.87 37.59Q53.86 38.92 52.56 39.87Q51.27 40.82 49.69 41.33Q48.12 41.85 46.29 41.85Q43.36 41.85 41.19 40.89Q39.01 39.94 37.57 38.26Q36.13 36.57 35.42 34.24Q34.72 31.91 34.72 29.13ZM100.42 27.12Q100.42 30.20 99.49 32.89Q98.56 35.57 96.80 37.56Q95.04 39.55 92.50 40.70Q89.97 41.85 86.74 41.85Q85.11 41.85 83.63 41.36Q82.15 40.87 80.92 39.98Q79.69 39.09 78.75 37.84Q77.81 36.60 77.27 35.06L73.61 41.19L70.43 41.19L70.43 2.61L78.69 2.61L78.69 16.36Q80.15 14.33 82.21 13.38Q84.28 12.43 86.74 12.43Q89.97 12.43 92.50 13.57Q95.04 14.72 96.80 16.70Q98.56 18.68 99.49 21.36Q100.42 24.05 100.42 27.12M92.04 27.12Q92.04 26.05 91.93 24.84Q91.82 23.63 91.55 22.44Q91.28 21.24 90.81 20.14Q90.33 19.04 89.60 18.20Q88.87 17.36 87.84 16.86Q86.82 16.36 85.42 16.36Q84.16 16.36 83.17 16.88Q82.18 17.41 81.43 18.29Q80.69 19.17 80.18 20.29Q79.66 21.41 79.35 22.61Q79.03 23.80 78.88 24.98Q78.74 26.15 78.74 27.12Q78.74 28.22 78.85 29.44Q78.96 30.66 79.22 31.87Q79.49 33.08 79.97 34.17Q80.44 35.25 81.19 36.10Q81.93 36.94 82.97 37.43Q84.01 37.92 85.42 37.92Q86.79 37.92 87.83 37.41Q88.87 36.91 89.60 36.07Q90.33 35.23 90.81 34.12Q91.28 33.01 91.55 31.81Q91.82 30.62 91.93 29.41Q92.04 28.20 92.04 27.12ZM138.65 31.64Q138.65 33.13 138.16 34.42Q137.67 35.72 136.82 36.78Q135.96 37.84 134.83 38.67Q133.69 39.50 132.39 40.06Q131.08 40.63 129.69 40.91Q128.30 41.19 126.95 41.19L106.27 41.19L106.27 6.03L125.17 6.03Q126.42 6.03 127.78 6.21Q129.15 6.40 130.46 6.79Q131.76 7.18 132.95 7.81Q134.13 8.45 135.02 9.36Q135.91 10.28 136.44 11.47Q136.96 12.67 136.96 14.21Q136.96 15.67 136.38 16.87Q135.79 18.07 134.80 19.01Q133.81 19.95 132.53 20.67Q131.25 21.39 129.83 21.92Q131.62 22.41 133.22 23.22Q134.81 24.02 136.02 25.20Q137.23 26.37 137.94 27.97Q138.65 29.57 138.65 31.64M127.12 15.06Q127.12 12.08 125.55 10.72Q123.97 9.35 121.07 9.35L115.97 9.35L115.97 20.75L120.24 20.75Q121.56 20.75 122.80 20.42Q124.05 20.09 125.01 19.40Q125.98 18.70 126.55 17.63Q127.12 16.55 127.12 15.06M128.83 31.03Q128.83 29.59 128.47 28.33Q128.10 27.08 127.34 26.16Q126.59 25.24 125.45 24.72Q124.32 24.19 122.78 24.19L115.97 24.19L115.97 37.77L121.92 37.77Q123.41 37.77 124.68 37.28Q125.95 36.79 126.88 35.91Q127.81 35.03 128.32 33.79Q128.83 32.54 128.83 31.03ZM167.58 15.48L162.94 23.17Q162.65 22.19 162.18 20.97Q161.72 19.75 161.04 18.69Q160.35 17.63 159.40 16.91Q158.45 16.19 157.20 16.19Q156.05 16.19 155.21 16.77Q154.37 17.36 153.78 18.30Q153.20 19.24 152.82 20.42Q152.44 21.61 152.23 22.81Q152.03 24.02 151.95 25.13Q151.88 26.25 151.88 27.05L151.88 41.19L143.60 41.19L143.60 12.99L146.78 12.99L150.12 19.56Q150.81 17.97 151.68 16.64Q152.56 15.31 153.71 14.34Q154.86 13.38 156.31 12.84Q157.76 12.30 159.59 12.30Q160.55 12.30 161.72 12.46Q162.89 12.62 164.01 13.00Q165.14 13.38 166.09 13.99Q167.04 14.60 167.58 15.48ZM169.07 29.13Q169.07 27.20 169.40 25.12Q169.73 23.05 170.35 20.97Q170.97 18.90 171.85 16.87Q172.73 14.84 173.83 12.99L179.86 12.99Q179.25 14.82 178.77 16.81Q178.30 18.80 177.97 20.79Q177.64 22.78 177.45 24.68Q177.27 26.59 177.27 28.22Q177.27 29.17 177.36 30.26Q177.44 31.35 177.66 32.43Q177.88 33.52 178.28 34.52Q178.69 35.52 179.32 36.29Q179.96 37.06 180.87 37.51Q181.79 37.96 183.03 37.96Q184.25 37.96 185.22 37.41Q186.18 36.87 186.91 35.97Q187.65 35.08 188.16 33.94Q188.67 32.79 189.00 31.58Q189.33 30.37 189.49 29.21Q189.65 28.05 189.65 27.12L189.65 12.99L197.90 12.99L197.90 41.19L194.73 41.19L190.94 34.62Q190.23 36.25 189.22 37.59Q188.21 38.92 186.91 39.87Q185.62 40.82 184.05 41.33Q182.47 41.85 180.64 41.85Q177.71 41.85 175.54 40.89Q173.36 39.94 171.92 38.26Q170.48 36.57 169.78 34.24Q169.07 31.91 169.07 29.13ZM230.81 19.97L227.25 21.39Q226.39 18.70 224.39 17.26Q222.39 15.82 219.58 15.82Q218.07 15.82 216.88 16.30Q215.70 16.77 214.81 17.60Q213.92 18.43 213.29 19.53Q212.67 20.63 212.28 21.88Q211.89 23.12 211.72 24.45Q211.55 25.78 211.55 27.03Q211.55 28.37 211.69 29.74Q211.84 31.10 212.19 32.36Q212.55 33.62 213.13 34.70Q213.72 35.79 214.61 36.60Q215.50 37.40 216.74 37.87Q217.97 38.33 219.58 38.33Q220.87 38.33 222.05 37.94Q223.22 37.55 224.19 36.84Q225.17 36.13 225.93 35.16Q226.68 34.18 227.12 32.98L230.71 34.30Q229.91 36.23 228.58 37.63Q227.25 39.04 225.56 39.95Q223.88 40.87 221.95 41.31Q220.02 41.75 218.04 41.75Q214.84 41.75 212.11 40.66Q209.38 39.58 207.39 37.61Q205.40 35.64 204.27 32.95Q203.15 30.25 203.15 27.03Q203.15 23.78 204.26 21.07Q205.37 18.36 207.35 16.41Q209.33 14.45 212.06 13.38Q214.79 12.30 218.04 12.30Q220.09 12.30 222.05 12.76Q224.00 13.21 225.67 14.15Q227.34 15.09 228.67 16.53Q230.00 17.97 230.81 19.97ZM242.48 27.81Q243.99 28.15 245.51 28.34Q247.02 28.54 248.56 28.54Q250.17 28.54 251.55 28.23Q252.93 27.93 253.94 27.21Q254.96 26.49 255.54 25.29Q256.13 24.10 256.13 22.31Q256.13 20.87 255.74 19.68Q255.35 18.48 254.58 17.63Q253.81 16.77 252.69 16.30Q251.56 15.82 250.07 15.82Q248.68 15.82 247.57 16.33Q246.46 16.85 245.62 17.71Q244.78 18.58 244.18 19.73Q243.58 20.87 243.19 22.12Q242.80 23.36 242.63 24.63Q242.46 25.90 242.46 27.03Q242.46 27.22 242.46 27.42Q242.46 27.61 242.48 27.81M262.82 22.24Q262.82 23.97 262.26 25.33Q261.69 26.68 260.73 27.71Q259.77 28.74 258.50 29.44Q257.23 30.15 255.79 30.60Q254.35 31.05 252.82 31.25Q251.29 31.45 249.85 31.45Q248.02 31.45 246.24 31.19Q244.46 30.93 242.72 30.37Q242.99 31.98 243.58 33.44Q244.17 34.89 245.14 35.97Q246.12 37.06 247.55 37.70Q248.97 38.33 250.93 38.33Q252.22 38.33 253.39 37.94Q254.57 37.55 255.54 36.84Q256.52 36.13 257.26 35.16Q258.01 34.18 258.47 32.98L262.04 34.30Q261.23 36.23 259.83 37.63Q258.42 39.04 256.65 39.95Q254.88 40.87 252.89 41.31Q250.90 41.75 248.95 41.75Q245.73 41.75 242.99 40.66Q240.26 39.58 238.28 37.62Q236.30 35.67 235.18 32.96Q234.06 30.25 234.06 27.03Q234.06 23.80 235.18 21.09Q236.30 18.38 238.28 16.43Q240.26 14.48 242.99 13.39Q245.73 12.30 248.95 12.30Q250.51 12.30 252.15 12.52Q253.78 12.74 255.32 13.22Q256.86 13.70 258.23 14.45Q259.59 15.21 260.61 16.32Q261.62 17.43 262.22 18.90Q262.82 20.36 262.82 22.24Z"/></g></g></svg>